<svg class="fill-current text-primary inline-block h-12 w-12" xmlns="http://www.w3.org/2000/svg" viewBox="0 0 120 120">
	<path d="M115.4,67.2c0.2-1.7,0.2-6.1,0.2-7c0-11.4-3.5-22-9.4-30.8C96.2,14.6,79.3,5,60.2,4.9
		C29.8,5,5.1,29.7,5.1,60.2c0,3.7,0.4,9.6,0.9,11.9c5.4,25.2,27.4,44.1,54.1,44.1c0.5,0,1,0,1.5,0c1.8-0.1,2.5-2.3,1.1-3.4
		c-6.6-5-10-12.8-10-22.2L53,68.1c0-0.8-0.6-1.4-1.5-1.3l-14.6,1.6c-0.6,0.2-1.2,0.2-1.9,0.2c-4.3,0-7.8-3.5-7.8-7.7
		c0-0.2-0.1-0.1-0.1-0.4c0.5-6.5,6.5-7.7,9.7-7.1l12.7,1.6c0.4,0,0.6-0.4,0.4-0.7l-7.8-9.9c-1.9-2.8-3.2-5.4-1.4-9.2
		c0.7-1.6,2.1-2.8,3.7-3.4c5.5-2.1,9.5,1.4,10.9,6.3l4.5,14.5c0.1,0.4,0.7,0.4,0.8,0l4.5-14.5c1.7-5.1,5.5-8.6,11.2-6.2
		c1.5,0.6,2.7,1.8,3.4,3.3c1.7,3.8,0.6,6.2-1.4,9.2l-7.7,9.9c-0.2,0.3,0,0.8,0.4,0.7l12.6-1.7c0.6-0.1,1.2-0.2,1.9-0.2
		c4.5-0.2,8.1,3.8,7.7,8.4c0,0.6-0.3,1.2-0.5,1.7c-1.7,4.8-6.2,5.4-9.3,5.1l-15.2-1.9c-0.7-0.1-1.2,0.4-1.1,1.2l0.5,8.7
		c1.3,17.9,4.9,29.8,15.1,29.8c3.5,0,12-1.7,18.6-8.4C108.9,89.5,114,78.9,115.4,67.2z"/>
</svg>